# xmcd
#
# Track frame offsets:
#	150
#	12268
#	35378
#	52085
#	67276
#	80160
#	94037
#	117146
#	129499
#	145786
#	160524
#	177506
#	200577
#	212983
#	231520
#	248770
#	264642
#	284668
#
# Disc length: 4022 seconds
#
# Revision: 2
# Processed by: cddbd v1.5.2PL0 Copyright (c) Steve Scherf et al.
# Submitted via: audiograbber 1.83.01
#
DISCID=150fb412
DTITLE=Wim Pols and Country Trail Band - Dwars Door De Storm
DYEAR=2013
DGENRE=Country
TTITLE0=Schommelstoel
TTITLE1=Raak mij aan
TTITLE2=Dwars door de storm
TTITLE3=Buigen of barsten
TTITLE4=Is er nog vrede
TTITLE5=Ik ben blij
TTITLE6=Geloven als een blinde
TTITLE7=Bij God bekend
TTITLE8=Is het toeval of valt het me toe
TTITLE9=De schepping spreekt
TTITLE10=Met Zijn armen open
TTITLE11=Ga maar
TTITLE12=Geef het nooit op
TTITLE13=Je hoeft niet meer te rennen
TTITLE14=Bid maar
TTITLE15=Gewoon Simoon
TTITLE16=Wie durft het aan
TTITLE17=God zegent jou
EXTD=
EXTT0=
EXTT1=
EXTT2=
EXTT3=
EXTT4=
EXTT5=
EXTT6=
EXTT7=
EXTT8=
EXTT9=
EXTT10=
EXTT11=
EXTT12=
EXTT13=
EXTT14=
EXTT15=
EXTT16=
EXTT17=
PLAYORDER=
